<?xml version="1.0" standalone="no"?>
<!DOCTYPE svg PUBLIC "-//W3C//DTD SVG 20010904//EN"
 "http://www.w3.org/TR/2001/REC-SVG-20010904/DTD/svg10.dtd">
<svg version="1.0" xmlns="http://www.w3.org/2000/svg"
 width="683.000000pt" height="683.000000pt" viewBox="0 0 683.000000 683.000000"
 preserveAspectRatio="xMidYMid meet">
<metadata>
Created by potrace 1.11, written by Peter Selinger 2001-2013
</metadata>
<g transform="translate(0.000000,683.000000) scale(0.100000,-0.100000)"
fill="#000000" stroke="none">
<path d="M4530 6425 c0 -317 -3 -405 -12 -405 -7 -1 -835 -1 -1840 -1 l-1828
0 0 -1870 0 -1869 78 0 c42 -1 870 -1 1840 -2 l1762 0 0 -404 c0 -316 -3 -404
-12 -405 -7 0 -835 -1 -1841 -1 l-1827 -1 0 -732 0 -732 2560 0 2560 0 0 1869
0 1868 -52 1 c-29 0 -857 0 -1840 1 l-1788 0 0 407 0 406 1840 -1 1840 -1 0
1139 0 1138 -720 0 -720 0 0 -405z"/>
</g>
</svg>
