<?xml version="1.0" standalone="no"?>
<!DOCTYPE svg PUBLIC "-//W3C//DTD SVG 20010904//EN"
 "http://www.w3.org/TR/2001/REC-SVG-20010904/DTD/svg10.dtd">
<svg version="1.0" xmlns="http://www.w3.org/2000/svg"
 width="512.000000pt" height="512.000000pt" viewBox="0 0 512.000000 512.000000"
 preserveAspectRatio="xMidYMid meet">
<metadata>
Created by potrace 1.11, written by Peter Selinger 2001-2013
</metadata>
<g transform="translate(0.000000,512.000000) scale(0.100000,-0.100000)"
fill="#000000" stroke="none">
<path d="M2772 4698 c0 -115 -2 -212 -4 -213 -2 -2 -237 -5 -523 -8 l-520 -3
-101 -27 c-250 -65 -436 -170 -610 -344 -122 -123 -206 -249 -285 -428 -25
-58 -61 -187 -74 -268 -20 -132 -14 -365 14 -486 56 -243 170 -448 348 -627
206 -207 478 -337 768 -368 22 -3 357 -6 745 -6 388 -1 719 -6 735 -11 48 -13
111 -74 131 -124 21 -56 15 -136 -15 -187 -22 -37 -78 -80 -121 -94 -14 -4
-560 -8 -1215 -9 l-1190 0 -2 -530 c-1 -291 2 -532 7 -535 14 -8 2419 -4 2490
4 427 52 807 320 1000 705 32 65 95 244 106 304 3 18 8 43 10 57 3 14 7 93 9
175 4 144 -9 277 -35 360 -66 210 -123 322 -234 465 -198 252 -496 426 -816
476 -25 4 -375 8 -777 10 -698 3 -735 4 -776 22 -108 48 -156 172 -108 278 23
51 54 81 109 106 41 19 78 19 1130 21 l1087 2 1 735 c0 404 -2 740 -4 747 -3
9 -159 12 -642 11 l-638 0 0 -210z"/>
</g>
</svg>
